<svg viewBox="0 0 32 32" width="32" height="32" xmlns="http://www.w3.org/2000/svg">
  <defs>
    <linearGradient id="g" x1="0" y1="0" x2="1" y2="1" gradientTransform="rotate(40,0.5,0.5)">
      <stop offset="0%" stop-color="#a78bfa"/>
      <stop offset="100%" stop-color="#6d28d9"/>
    </linearGradient>
  </defs>
  <rect width="32" height="32" rx="7" fill="url(#g)"/>
  <rect x="3.4"  y="9.4"  width="3.6" height="2.8" rx="0.9" fill="white" fill-opacity="0.90"/>
  <rect x="8.8"  y="9.4"  width="3.6" height="2.8" rx="0.9" fill="white" fill-opacity="0.90"/>
  <rect x="14.2" y="9.4"  width="3.6" height="2.8" rx="0.9" fill="white" fill-opacity="0.90"/>
  <rect x="19.6" y="9.4"  width="3.6" height="2.8" rx="0.9" fill="white" fill-opacity="0.90"/>
  <rect x="25.0" y="9.4"  width="3.6" height="2.8" rx="0.9" fill="white" fill-opacity="0.90"/>
  <rect x="3.4"  y="14.6" width="3.6" height="2.8" rx="0.9" fill="white" fill-opacity="0.90"/>
  <rect x="8.8"  y="14.6" width="3.6" height="2.8" rx="0.9" fill="white" fill-opacity="0.90"/>
  <rect x="14.2" y="14.6" width="3.6" height="2.8" rx="0.9" fill="white" fill-opacity="0.90"/>
  <rect x="19.6" y="14.6" width="3.6" height="2.8" rx="0.9" fill="white" fill-opacity="0.22"/>
  <rect x="25.0" y="14.6" width="3.6" height="2.8" rx="0.9" fill="white" fill-opacity="0.90"/>
  <rect x="3.4"  y="19.8" width="3.6" height="2.8" rx="0.9" fill="white" fill-opacity="0.90"/>
  <rect x="8.8"  y="19.8" width="3.6" height="2.8" rx="0.9" fill="white" fill-opacity="0.22"/>
  <rect x="14.2" y="19.8" width="3.6" height="2.8" rx="0.9" fill="white" fill-opacity="0.90"/>
  <rect x="19.6" y="19.8" width="3.6" height="2.8" rx="0.9" fill="white" fill-opacity="0.22"/>
  <rect x="25.0" y="19.8" width="3.6" height="2.8" rx="0.9" fill="white" fill-opacity="0.90"/>
</svg>
