<svg viewBox="0 0 16 16" width="16" height="16" xmlns="http://www.w3.org/2000/svg">
  <defs>
    <linearGradient id="g" x1="0" y1="0" x2="1" y2="1" gradientTransform="rotate(40,0.5,0.5)">
      <stop offset="0%" stop-color="#a78bfa"/>
      <stop offset="100%" stop-color="#6d28d9"/>
    </linearGradient>
  </defs>
  <rect width="16" height="16" rx="3.5" fill="url(#g)"/>
  <rect x="2.5"  y="3.7"  width="2" height="1.8" rx="0.5" fill="white" fill-opacity="0.90"/>
  <rect x="5.5"  y="3.7"  width="2" height="1.8" rx="0.5" fill="white" fill-opacity="0.90"/>
  <rect x="8.5"  y="3.7"  width="2" height="1.8" rx="0.5" fill="white" fill-opacity="0.90"/>
  <rect x="11.5" y="3.7"  width="2" height="1.8" rx="0.5" fill="white" fill-opacity="0.90"/>
  <rect x="2.5"  y="7.1"  width="2" height="1.8" rx="0.5" fill="white" fill-opacity="0.90"/>
  <rect x="5.5"  y="7.1"  width="2" height="1.8" rx="0.5" fill="white" fill-opacity="0.22"/>
  <rect x="8.5"  y="7.1"  width="2" height="1.8" rx="0.5" fill="white" fill-opacity="0.90"/>
  <rect x="11.5" y="7.1"  width="2" height="1.8" rx="0.5" fill="white" fill-opacity="0.90"/>
  <rect x="2.5"  y="10.5" width="2" height="1.8" rx="0.5" fill="white" fill-opacity="0.90"/>
  <rect x="5.5"  y="10.5" width="2" height="1.8" rx="0.5" fill="white" fill-opacity="0.22"/>
  <rect x="8.5"  y="10.5" width="2" height="1.8" rx="0.5" fill="white" fill-opacity="0.90"/>
  <rect x="11.5" y="10.5" width="2" height="1.8" rx="0.5" fill="white" fill-opacity="0.90"/>
</svg>
