<svg viewBox="0 0 512 512" width="512" height="512" xmlns="http://www.w3.org/2000/svg">
  <defs>
    <linearGradient id="g" x1="0" y1="0" x2="1" y2="1" gradientTransform="rotate(40,0.5,0.5)">
      <stop offset="0%" stop-color="#a78bfa"/>
      <stop offset="100%" stop-color="#6d28d9"/>
    </linearGradient>
  </defs>
  <rect width="512" height="512" rx="114" fill="url(#g)"/>
  <!-- row 0 -->
  <rect x="44"  y="148" width="70" height="52" rx="13" fill="white" fill-opacity="0.90"/>
  <rect x="132" y="148" width="70" height="52" rx="13" fill="white" fill-opacity="0.90"/>
  <rect x="221" y="148" width="70" height="52" rx="13" fill="white" fill-opacity="0.90"/>
  <rect x="310" y="148" width="70" height="52" rx="13" fill="white" fill-opacity="0.90"/>
  <rect x="398" y="148" width="70" height="52" rx="13" fill="white" fill-opacity="0.90"/>
  <!-- row 1 -->
  <rect x="44"  y="230" width="70" height="52" rx="13" fill="white" fill-opacity="0.90"/>
  <rect x="132" y="230" width="70" height="52" rx="13" fill="white" fill-opacity="0.90"/>
  <rect x="221" y="230" width="70" height="52" rx="13" fill="white" fill-opacity="0.22"/>
  <rect x="310" y="230" width="70" height="52" rx="13" fill="white" fill-opacity="0.90"/>
  <rect x="398" y="230" width="70" height="52" rx="13" fill="white" fill-opacity="0.90"/>
  <!-- row 2 -->
  <rect x="44"  y="312" width="70" height="52" rx="13" fill="white" fill-opacity="0.90"/>
  <rect x="132" y="312" width="70" height="52" rx="13" fill="white" fill-opacity="0.22"/>
  <rect x="221" y="312" width="70" height="52" rx="13" fill="white" fill-opacity="0.90"/>
  <rect x="310" y="312" width="70" height="52" rx="13" fill="white" fill-opacity="0.22"/>
  <rect x="398" y="312" width="70" height="52" rx="13" fill="white" fill-opacity="0.90"/>
</svg>
