<svg viewBox="0 0 192 192" width="192" height="192" xmlns="http://www.w3.org/2000/svg">
  <defs>
    <linearGradient id="g" x1="0" y1="0" x2="1" y2="1" gradientTransform="rotate(40,0.5,0.5)">
      <stop offset="0%" stop-color="#a78bfa"/>
      <stop offset="100%" stop-color="#6d28d9"/>
    </linearGradient>
  </defs>
  <rect width="192" height="192" rx="42" fill="url(#g)"/>
  <rect x="13"  y="55" width="26" height="18" rx="5" fill="white" fill-opacity="0.90"/>
  <rect x="48"  y="55" width="26" height="18" rx="5" fill="white" fill-opacity="0.90"/>
  <rect x="83"  y="55" width="26" height="18" rx="5" fill="white" fill-opacity="0.90"/>
  <rect x="118" y="55" width="26" height="18" rx="5" fill="white" fill-opacity="0.90"/>
  <rect x="153" y="55" width="26" height="18" rx="5" fill="white" fill-opacity="0.90"/>
  <rect x="13"  y="87" width="26" height="18" rx="5" fill="white" fill-opacity="0.90"/>
  <rect x="48"  y="87" width="26" height="18" rx="5" fill="white" fill-opacity="0.90"/>
  <rect x="83"  y="87" width="26" height="18" rx="5" fill="white" fill-opacity="0.22"/>
  <rect x="118" y="87" width="26" height="18" rx="5" fill="white" fill-opacity="0.90"/>
  <rect x="153" y="87" width="26" height="18" rx="5" fill="white" fill-opacity="0.90"/>
  <rect x="13"  y="119" width="26" height="18" rx="5" fill="white" fill-opacity="0.90"/>
  <rect x="48"  y="119" width="26" height="18" rx="5" fill="white" fill-opacity="0.22"/>
  <rect x="83"  y="119" width="26" height="18" rx="5" fill="white" fill-opacity="0.90"/>
  <rect x="118" y="119" width="26" height="18" rx="5" fill="white" fill-opacity="0.22"/>
  <rect x="153" y="119" width="26" height="18" rx="5" fill="white" fill-opacity="0.90"/>
</svg>
