<svg viewBox="0 0 148 106" width="148" height="106" xmlns="http://www.w3.org/2000/svg">
  <defs>
    <linearGradient id="g" x1="0" y1="0" x2="1" y2="1" gradientTransform="rotate(40,0.5,0.5)">
      <stop offset="0%" stop-color="#a78bfa"/>
      <stop offset="100%" stop-color="#6d28d9"/>
    </linearGradient>
    <style>
      .wm { font-family: 'Geist', system-ui, -apple-system, sans-serif; font-weight: 600; font-size: 18px; letter-spacing: -0.36px; fill: #F7F6FC; }
    </style>
  </defs>
  <!-- mark centred at top -->
  <rect x="38" y="0" width="72" height="72" rx="17" fill="url(#g)"/>
  <!-- row 0 -->
  <rect x="42.75" y="20" width="9.5" height="7" rx="2" fill="white" fill-opacity="0.90"/>
  <rect x="56"    y="20" width="9.5" height="7" rx="2" fill="white" fill-opacity="0.90"/>
  <rect x="69.25" y="20" width="9.5" height="7" rx="2" fill="white" fill-opacity="0.90"/>
  <rect x="82.5"  y="20" width="9.5" height="7" rx="2" fill="white" fill-opacity="0.90"/>
  <rect x="95.75" y="20" width="9.5" height="7" rx="2" fill="white" fill-opacity="0.90"/>
  <!-- row 1 -->
  <rect x="42.75" y="32.5" width="9.5" height="7" rx="2" fill="white" fill-opacity="0.90"/>
  <rect x="56"    y="32.5" width="9.5" height="7" rx="2" fill="white" fill-opacity="0.90"/>
  <rect x="69.25" y="32.5" width="9.5" height="7" rx="2" fill="white" fill-opacity="0.22"/>
  <rect x="82.5"  y="32.5" width="9.5" height="7" rx="2" fill="white" fill-opacity="0.90"/>
  <rect x="95.75" y="32.5" width="9.5" height="7" rx="2" fill="white" fill-opacity="0.90"/>
  <!-- row 2 -->
  <rect x="42.75" y="45" width="9.5" height="7" rx="2" fill="white" fill-opacity="0.90"/>
  <rect x="56"    y="45" width="9.5" height="7" rx="2" fill="white" fill-opacity="0.22"/>
  <rect x="69.25" y="45" width="9.5" height="7" rx="2" fill="white" fill-opacity="0.90"/>
  <rect x="82.5"  y="45" width="9.5" height="7" rx="2" fill="white" fill-opacity="0.22"/>
  <rect x="95.75" y="45" width="9.5" height="7" rx="2" fill="white" fill-opacity="0.90"/>
  <!-- wordmark centred below -->
  <text x="74" y="96" class="wm" text-anchor="middle">TeamFore</text>
</svg>
