<svg viewBox="0 0 228 48" width="228" height="48" xmlns="http://www.w3.org/2000/svg">
  <defs>
    <linearGradient id="g" x1="0" y1="0" x2="1" y2="1" gradientTransform="rotate(40,0.5,0.5)">
      <stop offset="0%" stop-color="#a78bfa"/>
      <stop offset="100%" stop-color="#6d28d9"/>
    </linearGradient>
    <style>
      @import url('https://fonts.googleapis.com/css2?family=Geist:wght@600&amp;display=swap');
      .wm { font-family: 'Geist', system-ui, -apple-system, sans-serif; font-weight: 600; font-size: 22px; letter-spacing: -0.44px; fill: #F7F6FC; }
    </style>
  </defs>
  <!-- mark bg -->
  <rect width="48" height="48" rx="11" fill="url(#g)"/>
  <!-- row 0 -->
  <rect x="4"    y="13.25" width="6" height="4.5" rx="1.4" fill="white" fill-opacity="0.90"/>
  <rect x="12.5" y="13.25" width="6" height="4.5" rx="1.4" fill="white" fill-opacity="0.90"/>
  <rect x="21"   y="13.25" width="6" height="4.5" rx="1.4" fill="white" fill-opacity="0.90"/>
  <rect x="29.5" y="13.25" width="6" height="4.5" rx="1.4" fill="white" fill-opacity="0.90"/>
  <rect x="38"   y="13.25" width="6" height="4.5" rx="1.4" fill="white" fill-opacity="0.90"/>
  <!-- row 1 -->
  <rect x="4"    y="21.75" width="6" height="4.5" rx="1.4" fill="white" fill-opacity="0.90"/>
  <rect x="12.5" y="21.75" width="6" height="4.5" rx="1.4" fill="white" fill-opacity="0.90"/>
  <rect x="21"   y="21.75" width="6" height="4.5" rx="1.4" fill="white" fill-opacity="0.22"/>
  <rect x="29.5" y="21.75" width="6" height="4.5" rx="1.4" fill="white" fill-opacity="0.90"/>
  <rect x="38"   y="21.75" width="6" height="4.5" rx="1.4" fill="white" fill-opacity="0.90"/>
  <!-- row 2 -->
  <rect x="4"    y="30.25" width="6" height="4.5" rx="1.4" fill="white" fill-opacity="0.90"/>
  <rect x="12.5" y="30.25" width="6" height="4.5" rx="1.4" fill="white" fill-opacity="0.22"/>
  <rect x="21"   y="30.25" width="6" height="4.5" rx="1.4" fill="white" fill-opacity="0.90"/>
  <rect x="29.5" y="30.25" width="6" height="4.5" rx="1.4" fill="white" fill-opacity="0.22"/>
  <rect x="38"   y="30.25" width="6" height="4.5" rx="1.4" fill="white" fill-opacity="0.90"/>
  <!-- wordmark -->
  <text x="62" y="32" class="wm">TeamFore</text>
</svg>
