<svg viewBox="0 0 64 64" width="64" height="64" xmlns="http://www.w3.org/2000/svg">
  <defs>
    <linearGradient id="g" x1="0" y1="0" x2="1" y2="1" gradientTransform="rotate(40,0.5,0.5)">
      <stop offset="0%" stop-color="#a78bfa"/>
      <stop offset="100%" stop-color="#6d28d9"/>
    </linearGradient>
  </defs>
  <rect width="64" height="64" rx="15" fill="url(#g)"/>
  <rect x="6"  y="18" width="8" height="6" rx="1.8" fill="white" fill-opacity="0.90"/>
  <rect x="17" y="18" width="8" height="6" rx="1.8" fill="white" fill-opacity="0.90"/>
  <rect x="28" y="18" width="8" height="6" rx="1.8" fill="white" fill-opacity="0.90"/>
  <rect x="39" y="18" width="8" height="6" rx="1.8" fill="white" fill-opacity="0.90"/>
  <rect x="50" y="18" width="8" height="6" rx="1.8" fill="white" fill-opacity="0.90"/>
  <rect x="6"  y="29" width="8" height="6" rx="1.8" fill="white" fill-opacity="0.90"/>
  <rect x="17" y="29" width="8" height="6" rx="1.8" fill="white" fill-opacity="0.90"/>
  <rect x="28" y="29" width="8" height="6" rx="1.8" fill="white" fill-opacity="0.22"/>
  <rect x="39" y="29" width="8" height="6" rx="1.8" fill="white" fill-opacity="0.90"/>
  <rect x="50" y="29" width="8" height="6" rx="1.8" fill="white" fill-opacity="0.90"/>
  <rect x="6"  y="40" width="8" height="6" rx="1.8" fill="white" fill-opacity="0.90"/>
  <rect x="17" y="40" width="8" height="6" rx="1.8" fill="white" fill-opacity="0.22"/>
  <rect x="28" y="40" width="8" height="6" rx="1.8" fill="white" fill-opacity="0.90"/>
  <rect x="39" y="40" width="8" height="6" rx="1.8" fill="white" fill-opacity="0.22"/>
  <rect x="50" y="40" width="8" height="6" rx="1.8" fill="white" fill-opacity="0.90"/>
</svg>
